<svg width="48" height="40" viewBox="0 0 48 40" fill="none" xmlns="http://www.w3.org/2000/svg">
<path d="M26.0002 10.0001H18.0002C17.4698 10.0001 16.961 10.2108 16.586 10.5859C16.2109 10.961 16.0002 11.4697 16.0002 12.0001V28.0001C16.0002 28.5306 16.2109 29.0393 16.586 29.4143C16.961 29.7894 17.4698 30.0001 18.0002 30.0001H30.0002C30.5306 30.0001 31.0393 29.7894 31.4144 29.4143C31.7895 29.0393 32.0002 28.5306 32.0002 28.0001V16.0001L26.0002 10.0001Z" stroke="#737791" stroke-width="2" stroke-linecap="round" stroke-linejoin="round"/>
<path d="M28.0002 25.0001H20.0002" stroke="#737791" stroke-width="2" stroke-linecap="round" stroke-linejoin="round"/>
<path d="M28.0002 21.0001H20.0002" stroke="#737791" stroke-width="2" stroke-linecap="round" stroke-linejoin="round"/>
<path d="M22.0002 17.0001H21.0002H20.0002" stroke="#737791" stroke-width="2" stroke-linecap="round" stroke-linejoin="round"/>
<path d="M26.0002 10.0001V16.0001H32.0002" stroke="#737791" stroke-width="2" stroke-linecap="round" stroke-linejoin="round"/>
</svg>
