<svg width="48" height="40" viewBox="0 0 48 40" fill="none" xmlns="http://www.w3.org/2000/svg">
<path d="M33.2102 23.8901C32.574 25.3946 31.5789 26.7203 30.312 27.7514C29.0451 28.7825 27.5449 29.4875 25.9426 29.8049C24.3403 30.1222 22.6846 30.0423 21.1203 29.5719C19.556 29.1016 18.1308 28.2552 16.9692 27.1068C15.8076 25.9583 14.945 24.5429 14.4568 22.9841C13.9686 21.4253 13.8697 19.7706 14.1688 18.1647C14.4678 16.5589 15.1557 15.0507 16.1722 13.7721C17.1888 12.4935 18.503 11.4834 20.0002 10.8301" stroke="#737791" stroke-width="2" stroke-linecap="round" stroke-linejoin="round"/>
<path d="M34.0002 20.0001C34.0002 18.6869 33.7415 17.3865 33.239 16.1733C32.7364 14.96 31.9998 13.8576 31.0713 12.9291C30.1427 12.0005 29.0403 11.2639 27.827 10.7613C26.6138 10.2588 25.3134 10.0001 24.0002 10.0001V20.0001H34.0002Z" stroke="#737791" stroke-width="2" stroke-linecap="round" stroke-linejoin="round"/>
</svg>
