<svg width="48" height="41" viewBox="0 0 48 41" fill="none" xmlns="http://www.w3.org/2000/svg">
<g clip-path="url(#clip0_1_10214)">
<path d="M24 23.5C25.6569 23.5 27 22.1569 27 20.5C27 18.8431 25.6569 17.5 24 17.5C22.3431 17.5 21 18.8431 21 20.5C21 22.1569 22.3431 23.5 24 23.5Z" stroke="#004A3F" stroke-width="2" stroke-linecap="round" stroke-linejoin="round"/>
<path d="M31.4 23.5C31.2669 23.8016 31.2272 24.1362 31.286 24.4606C31.3448 24.785 31.4995 25.0843 31.73 25.32L31.79 25.38C31.976 25.5657 32.1235 25.7863 32.2241 26.0291C32.3248 26.2719 32.3766 26.5322 32.3766 26.795C32.3766 27.0578 32.3248 27.3181 32.2241 27.5609C32.1235 27.8037 31.976 28.0243 31.79 28.21C31.6043 28.396 31.3837 28.5435 31.1409 28.6441C30.8981 28.7448 30.6378 28.7966 30.375 28.7966C30.1122 28.7966 29.8519 28.7448 29.6091 28.6441C29.3663 28.5435 29.1457 28.396 28.96 28.21L28.9 28.15C28.6643 27.9195 28.365 27.7648 28.0406 27.706C27.7162 27.6472 27.3816 27.6869 27.08 27.82C26.7842 27.9468 26.532 28.1572 26.3543 28.4255C26.1766 28.6938 26.0813 29.0082 26.08 29.33V29.5C26.08 30.0304 25.8693 30.5391 25.4942 30.9142C25.1191 31.2893 24.6104 31.5 24.08 31.5C23.5496 31.5 23.0409 31.2893 22.6658 30.9142C22.2907 30.5391 22.08 30.0304 22.08 29.5V29.41C22.0723 29.079 21.9651 28.758 21.7725 28.4887C21.5799 28.2194 21.3107 28.0143 21 27.9C20.6984 27.7669 20.3638 27.7272 20.0394 27.786C19.715 27.8448 19.4157 27.9995 19.18 28.23L19.12 28.29C18.9343 28.476 18.7137 28.6235 18.4709 28.7241C18.2281 28.8248 17.9678 28.8766 17.705 28.8766C17.4422 28.8766 17.1819 28.8248 16.9391 28.7241C16.6963 28.6235 16.4757 28.476 16.29 28.29C16.104 28.1043 15.9565 27.8837 15.8559 27.6409C15.7552 27.3981 15.7034 27.1378 15.7034 26.875C15.7034 26.6122 15.7552 26.3519 15.8559 26.1091C15.9565 25.8663 16.104 25.6457 16.29 25.46L16.35 25.4C16.5805 25.1643 16.7352 24.865 16.794 24.5406C16.8528 24.2162 16.8131 23.8816 16.68 23.58C16.5532 23.2842 16.3428 23.032 16.0745 22.8543C15.8062 22.6766 15.4918 22.5813 15.17 22.58H15C14.4696 22.58 13.9609 22.3693 13.5858 21.9942C13.2107 21.6191 13 21.1104 13 20.58C13 20.0496 13.2107 19.5409 13.5858 19.1658C13.9609 18.7907 14.4696 18.58 15 18.58H15.09C15.421 18.5723 15.742 18.4651 16.0113 18.2725C16.2806 18.0799 16.4857 17.8107 16.6 17.5C16.7331 17.1984 16.7728 16.8638 16.714 16.5394C16.6552 16.215 16.5005 15.9157 16.27 15.68L16.21 15.62C16.024 15.4343 15.8765 15.2137 15.7759 14.9709C15.6752 14.7281 15.6234 14.4678 15.6234 14.205C15.6234 13.9422 15.6752 13.6819 15.7759 13.4391C15.8765 13.1963 16.024 12.9757 16.21 12.79C16.3957 12.604 16.6163 12.4565 16.8591 12.3559C17.1019 12.2552 17.3622 12.2034 17.625 12.2034C17.8878 12.2034 18.1481 12.2552 18.3909 12.3559C18.6337 12.4565 18.8543 12.604 19.04 12.79L19.1 12.85C19.3357 13.0805 19.635 13.2352 19.9594 13.294C20.2838 13.3528 20.6184 13.3131 20.92 13.18H21C21.2958 13.0532 21.548 12.8428 21.7257 12.5745C21.9034 12.3062 21.9987 11.9918 22 11.67V11.5C22 10.9696 22.2107 10.4609 22.5858 10.0858C22.9609 9.71071 23.4696 9.5 24 9.5C24.5304 9.5 25.0391 9.71071 25.4142 10.0858C25.7893 10.4609 26 10.9696 26 11.5V11.59C26.0013 11.9118 26.0966 12.2262 26.2743 12.4945C26.452 12.7628 26.7042 12.9732 27 13.1C27.3016 13.2331 27.6362 13.2728 27.9606 13.214C28.285 13.1552 28.5843 13.0005 28.82 12.77L28.88 12.71C29.0657 12.524 29.2863 12.3765 29.5291 12.2759C29.7719 12.1752 30.0322 12.1234 30.295 12.1234C30.5578 12.1234 30.8181 12.1752 31.0609 12.2759C31.3037 12.3765 31.5243 12.524 31.71 12.71C31.896 12.8957 32.0435 13.1163 32.1441 13.3591C32.2448 13.6019 32.2966 13.8622 32.2966 14.125C32.2966 14.3878 32.2448 14.6481 32.1441 14.8909C32.0435 15.1337 31.896 15.3543 31.71 15.54L31.65 15.6C31.4195 15.8357 31.2648 16.135 31.206 16.4594C31.1472 16.7838 31.1869 17.1184 31.32 17.42V17.5C31.4468 17.7958 31.6572 18.048 31.9255 18.2257C32.1938 18.4034 32.5082 18.4987 32.83 18.5H33C33.5304 18.5 34.0391 18.7107 34.4142 19.0858C34.7893 19.4609 35 19.9696 35 20.5C35 21.0304 34.7893 21.5391 34.4142 21.9142C34.0391 22.2893 33.5304 22.5 33 22.5H32.91C32.5882 22.5013 32.2738 22.5966 32.0055 22.7743C31.7372 22.952 31.5268 23.2042 31.4 23.5V23.5Z" stroke="#004A3F" stroke-width="2" stroke-linecap="round" stroke-linejoin="round"/>
</g>
<defs>
<clipPath id="clip0_1_10214">
<rect width="24" height="24" fill="white" transform="translate(12 8.5)"/>
</clipPath>
</defs>
</svg>
